name analog
datacolumns 19
datarows 18
range 0.1505 0.159
endheader
time	ground_force_vx	ground_force_vy	ground_force_vz	ground_force_px	ground_force_py	ground_force_pz	l_ground_force_vx	l_ground_force_vy	l_ground_force_vz	l_ground_force_px	l_ground_force_py	l_ground_force_pz	ground_torque_x	ground_torque_y	ground_torque_z	l_ground_torque_x	l_ground_torque_y	l_ground_torque_z
0.1505	-0.0	-0.0	-0.0	3.655553817749024	-0.0020752060227096	-22.578845977783203	4.701671600341797	-9.536685943603516	-476.9329833984375	-0.0	-0.0	-0.0	-0.0	-0.0	-0.0	142740.46875	3226.14501953125	-563.3859252929688
0.151	-0.0	-0.0	-0.0	4.011563777923584	1.0455552339553833	-22.096111297607425	4.437530517578125	-8.741864204406738	-477.2745971679688	-0.0	-0.0	-0.0	-0.0	-0.0	-0.0	143032.6875	3625.554931640625	-537.0126342773438
0.1515	-0.0	-0.0	-0.0	4.382945537567139	-0.0038734169211238	-21.21381950378418	4.346828460693359	-8.121756553649902	-477.26751708984375	-0.0	-0.0	-0.0	-0.0	-0.0	-0.0	143257.859375	3624.2880859375	-647.7128295898438
0.152	-0.0	-0.0	-0.0	4.637085437774658	-0.0854117199778556	-23.972028732299805	4.969654560089111	-6.625968933105469	-478.3231506347656	-0.0	-0.0	-0.0	-0.0	-0.0	-0.0	143434.296875	3830.883544921875	-386.2564392089844
0.1525	-0.0	-0.0	-0.0	4.200040340423584	0.0053549273870885	-25.760915756225582	5.223276615142822	-5.829231262207031	-477.27630615234375	-0.0	-0.0	-0.0	-0.0	-0.0	-0.0	144043.078125	4309.9228515625	-531.7185668945312
0.153	-0.0	-0.0	-0.0	3.662796974182129	0.7918506264686584	-27.188037872314453	4.703383922576904	-4.500996112823486	-476.2697448730469	-0.0	-0.0	-0.0	-0.0	-0.0	-0.0	143912.125	4346.8681640625	-353.19403076171875
0.1535	-0.0	-0.0	-0.0	2.772104263305664	0.181547075510025	-28.54897689819336	4.971075057983398	-3.619560718536377	-477.639404296875	-0.0	-0.0	-0.0	-0.0	-0.0	-0.0	143926.671875	4817.2890625	-415.4149475097656
0.154	-0.0	-0.0	-0.0	2.2255232334136963	-0.1624765247106552	-26.52602195739746	5.325789451599121	-2.9935519695281982	-475.9060363769531	-0.0	-0.0	-0.0	-0.0	-0.0	-0.0	143564.328125	4949.716796875	-382.0798034667969
0.1545	-0.0	-0.0	-0.0	1.4348803758621216	0.7040365934371948	-29.66116523742676	5.055020809173584	-2.4685444831848145	-474.8520812988281	-0.0	-0.0	-0.0	-0.0	-0.0	-0.0	143795.234375	5116.9833984375	-178.51351928710938
0.155	-0.0	-0.0	-0.0	1.076236367225647	0.1811133772134781	-29.672765731811523	4.611541271209717	-2.118306875228882	-474.14788818359375	-0.0	-0.0	-0.0	-0.0	-0.0	-0.0	143518.796875	5320.0712890625	-355.6004638671875
0.1555	-0.0	-0.0	-0.0	1.2475844621658323	0.001361399423331	-29.688692092895508	4.26218318939209	-1.587092041969299	-472.7406005859375	-0.0	-0.0	-0.0	-0.0	-0.0	-0.0	143091.0625	5590.36865234375	-444.1449890136719
0.156	-0.0	-0.0	-0.0	0.4499081075191498	0.4340957403182983	-31.0645694732666	4.165572643280029	-1.241593599319458	-472.0378723144531	-0.0	-0.0	-0.0	-0.0	-0.0	-0.0	143001.421875	5930.5791015625	-591.4883422851562
0.1565	-0.0	-0.0	-0.0	1.1560744047164917	-0.0012196397874504	-32.4925537109375	3.900866270065308	-1.852357625961304	-470.6468811035156	-0.0	-0.0	-0.0	-0.0	-0.0	-0.0	142048.421875	6037.70361328125	-768.1558837890625
0.157	-0.0	-0.0	-0.0	0.810916543006897	-0.1759708821773529	-31.079833984375	3.546152114868164	-1.4991992712020874	-468.2302856445313	-0.0	-0.0	-0.0	-0.0	-0.0	-0.0	142283.359375	6080.04736328125	-710.1768188476562
0.1575	-0.0	-0.0	-0.0	0.8071687817573547	0.1729228347539901	-30.390396118164062	3.375260591506958	-1.943077087402344	-467.8631591796875	-0.0	-0.0	-0.0	-0.0	-0.0	-0.0	141646.140625	6471.73046875	-710.3853759765625
0.158	-0.0	-0.0	-0.0	0.6274850368499756	-0.0951479524374008	-30.37744903564453	3.2882890701293945	-2.291393995285034	-465.4112548828125	-0.0	-0.0	-0.0	-0.0	-0.0	-0.0	141204.78125	6525.7802734375	-798.5048217773438
0.1585	-0.0	-0.0	-0.0	0.8028945922851562	-0.1773352175951004	-30.038633346557617	3.372852563858032	-2.2043728828430176	-464.36077880859375	-0.0	-0.0	-0.0	-0.0	-0.0	-0.0	140409.1875	6645.8291015625	-799.7064208984375
0.159	-0.0	-0.0	-0.0	0.6304379105567932	0.2639860510826111	-31.78956794738769	3.3684678077697754	-2.380467176437378	-461.5884399414063	-0.0	-0.0	-0.0	-0.0	-0.0	-0.0	140417.546875	7283.6171875	-917.5108032226562
